<?xml version="1.0" encoding="UTF-8" standalone="no"?>
<!DOCTYPE svg PUBLIC "-//W3C//DTD SVG 1.1//EN" "http://www.w3.org/Graphics/SVG/1.1/DTD/svg11.dtd">
<svg xmlns:xl="http://www.w3.org/1999/xlink" xmlns:dc="http://purl.org/dc/elements/1.1/" xmlns="http://www.w3.org/2000/svg" version="1.1" viewBox="0 0 113.30938 40" width="113.30938" height="40">
  <defs/>
  <metadata> Produced by OmniGraffle 7.18.4\n2021-06-06 19:28:46 +0000</metadata>
  <g id="Canvas_1" fill="none" stroke-opacity="1" fill-opacity="1" stroke="none" stroke-dasharray="none">
    <title>Canvas 1</title>
    <g id="Canvas_1_Layer_1">
      <title>Layer 1</title>
      <g id="Graphic_31">
        <path d="M 103.78008 0 L 9.53468 0 C 9.16798 0 8.80568 0 8.43995 .002 C 8.1338 .004 7.83009 .00981 7.521 .0147 C 6.849514 .022601804 6.1796065 .08167626 5.5171 .19141 C 4.855524 .30353263 4.2146725 .51491574 3.61622 .81841 C 3.0184994 1.1244717 2.472345 1.5221675 1.99757 1.99707 C 1.5203025 2.470637 1.1224632 3.0180164 .81935 3.61816 C .51540024 4.217109 .3046405 4.8589383 .19435 5.52148 C .08301094 6.183185 .02309838 6.8525205 .01515 7.52348 C .00587 7.83008 .00489 8.1377 0 8.44434 L 0 31.5586 C .00489 31.8691 .00587 32.1699 .01515 32.4805 C .023100818 33.151426 .08301338 33.82073 .19435 34.4824 C .30433595 35.14533 .51510816 35.787527 .81935 36.3867 C 1.1223256 36.984903 1.5202208 37.530066 1.99757 38.001 C 2.4705448 38.478014 3.0170522 38.87598 3.61622 39.1797 C 4.214668 39.484007 4.8554504 39.69665 5.5171 39.8105 C 6.179719 39.919355 6.8495574 39.978453 7.521 39.9873 C 7.83009 39.9941 8.1338 39.998 8.43995 39.998 C 8.80567 40 9.168 40 9.53468 40 L 103.78008 40 C 104.13948 40 104.50468 40 104.86408 39.998 C 105.16878 39.998 105.48128 39.9941 105.78598 39.9873 C 106.45615 39.978924 107.12473 39.91982 107.78598 39.8105 C 108.44976 39.695846 109.09284 39.48326 109.69418 39.1797 C 110.29281 38.875805 110.83881 38.47785 111.31138 38.001 C 111.7875 37.52822 112.18624 36.983457 112.49298 36.3867 C 112.79494 35.78709 113.0037 35.144944 113.11208 34.4824 C 113.2236 33.820638 113.28563 33.151484 113.29768 32.4805 C 113.30158 32.1699 113.30158 31.8691 113.30158 31.5586 C 113.30938 31.1953 113.30938 30.834 113.30938 30.4648 L 113.30938 9.53613 C 113.30938 9.16992 113.30938 8.80664 113.30158 8.44434 C 113.30158 8.1377 113.30158 7.83008 113.29768 7.52344 C 113.28564 6.8524224 113.2236 6.183236 113.11208 5.52144 C 113.0034 4.8592816 112.79465 4.2175033 112.49298 3.61812 C 111.8757 2.415196 110.89688 1.4360254 109.69418 .81832 C 109.09284 .5155674 108.44969 .3042404 107.78598 .19132 C 107.12484 .08110278 106.4562 .022007765 105.78598 .01456 C 105.48128 .00968 105.16878 .00382 104.86408 .00187 C 104.50468 -13e-5 104.13948 -13e-5 103.78008 -13e-5 Z" fill="#666"/>
      </g>
      <g id="Graphic_30">
        <path d="M 8.44483 39.125 C 8.14015 39.125 7.84278 39.1211 7.54054 39.1143 C 6.914322 39.10614 6.289567 39.051625 5.6714 38.9512 C 5.09499 38.85193 4.536604 38.667264 4.01466 38.4033 C 3.4975017 38.141523 3.0258118 37.798273 2.61766 37.3867 C 2.2036003 36.979975 1.8588767 36.508244 1.59715 35.9902 C 1.3325393 35.46879 1.1494129 34.9099 1.05415 34.333 C .9512744 33.713115 .8956145 33.086313 .88765 32.458 C .88131 32.2471 .87301 31.5449 .87301 31.5449 L .87301 8.44434 C .87301 8.44434 .88185 7.75293 .8877 7.5498 C .8953259 6.922482 .9506622 6.296653 1.05323 5.67773 C 1.1486687 5.09925 1.3319369 4.538749 1.59669 4.01563 C 1.8574548 3.497944 2.2002646 3.0258603 2.61183 2.61768 C 3.022933 2.2056214 3.4961316 1.8606041 4.01417 1.59521 C 4.5349147 1.3320936 5.0922454 1.1487325 5.66749 1.05127 C 6.287687 .9498361 6.914611 .8949961 7.543 .88721 L 8.44532 .875 L 104.85918 .875 L 105.77228 .8877 C 106.39495 .8950992 107.01618 .94945 107.63068 1.05029 C 108.21175 1.148975 108.77489 1.3336155 109.30158 1.59814 C 110.3394 2.132986 111.18385 2.979163 111.71658 4.01807 C 111.97711 4.5375776 112.15755 5.093507 112.25178 5.66699 C 112.35557 6.2909914 112.41366 6.921738 112.42558 7.5542 C 112.42848 7.8374 112.42848 8.1416 112.42848 8.44434 C 112.43638 8.81934 112.43638 9.17627 112.43638 9.53613 L 112.43638 30.4648 C 112.43638 30.8281 112.43638 31.1826 112.42848 31.54 C 112.42848 31.8652 112.42848 32.1631 112.42458 32.4697 C 112.41292 33.090876 112.3558 33.710364 112.25368 34.3232 C 112.16037 34.90426 111.97824 35.467513 111.71368 35.9932 C 111.4501 36.50562 111.10736 36.973266 110.69808 37.3789 C 110.28956 37.792685 109.81704 38.137943 109.29868 38.4014 C 108.77345 38.667394 108.21114 38.85274 107.63068 38.9512 C 107.01256 39.05216 106.38775 39.10668 105.76148 39.1143 C 105.46858 39.1211 105.16188 39.125 104.86408 39.125 L 103.78008 39.127 Z" fill="black"/>
      </g>
      <g id="Graphic_28">
        <title>_Path_</title>
        <path d="M 24.76888 20.30068 C 24.790737 18.60421 25.680123 17.037186 27.12544 16.14862 C 26.209513 14.840513 24.730392 14.040878 23.13428 13.99094 C 21.45504 13.81468 19.82709 14.99577 18.97138 14.99577 C 18.09911 14.99577 16.78161 14.00844 15.36288 14.03763 C 13.496201 14.097938 11.798137 15.133525 10.88996 16.7655 C 8.95596 20.11392 10.39855 25.03497 12.25116 27.74158 C 13.17806 29.06693 14.26134 30.54738 15.67879 30.49488 C 17.06585 30.43735 17.58389 29.6104 19.25819 29.6104 C 20.91695 29.6104 21.40298 30.49488 22.84919 30.4615 C 24.33757 30.43734 25.27532 29.13026 26.1697 27.79236 C 26.835676 26.848 27.348144 25.804276 27.68812 24.69985 C 25.920377 23.95218 24.770943 22.220034 24.76888 20.30068 Z" fill="#666"/>
      </g>
      <g id="Graphic_27">
        <title>_Path_2</title>
        <path d="M 22.03725 12.21089 C 22.848777 11.236682 23.248585 9.984502 23.15177 8.72027 C 21.911938 8.85049 20.76668 9.44305 19.94419 10.37988 C 19.132019 11.304189 18.720575 12.513433 18.80048 13.74127 C 20.056937 13.754207 21.249916 13.190153 22.03725 12.21089 Z" fill="#666"/>
      </g>
      <g id="Graphic_24">
        <path d="M 42.30227 27.13965 L 37.56887 27.13965 L 36.43215 30.4961 L 34.42727 30.4961 L 38.91067 18.0781 L 40.99367 18.0781 L 45.47707 30.4961 L 43.438 30.4961 Z M 38.0591 25.59082 L 41.8111 25.59082 L 39.96149 20.14355 L 39.90973 20.14355 Z" fill="#666"/>
      </g>
      <g id="Graphic_23">
        <path d="M 55.15969 25.96973 C 55.15969 28.78321 53.65383 30.59082 51.38137 30.59082 C 50.206755 30.652265 49.10033 30.03703 48.53274 29.00682 L 48.48974 29.00682 L 48.48974 33.4912 L 46.63134 33.4912 L 46.63134 21.44238 L 48.4302 21.44238 L 48.4302 22.94824 L 48.46438 22.94824 C 49.05719 21.924488 50.164804 21.30952 51.34719 21.34765 C 53.645 21.34766 55.15969 23.16406 55.15969 25.96973 Z M 53.24953 25.96973 C 53.24953 24.13673 52.30226 22.93164 50.85695 22.93164 C 49.43703 22.93164 48.48195 24.16211 48.48195 25.96973 C 48.48195 27.79395 49.43703 29.01563 50.85695 29.01563 C 52.30227 29.01563 53.24953 27.81934 53.24953 25.96973 Z" fill="#666"/>
      </g>
      <g id="Graphic_22">
        <path d="M 65.12453 25.96973 C 65.12453 28.78321 63.61867 30.59082 61.34621 30.59082 C 60.171595 30.652265 59.06517 30.03703 58.49758 29.00682 L 58.45458 29.00682 L 58.45458 33.4912 L 56.59618 33.4912 L 56.59618 21.44238 L 58.395 21.44238 L 58.395 22.94824 L 58.42918 22.94824 C 59.02199 21.924489 60.12961 21.309523 61.312 21.34766 C 63.60988 21.34766 65.12453 23.16406 65.12453 25.96973 Z M 63.21437 25.96973 C 63.21437 24.13673 62.2671 22.93164 60.82179 22.93164 C 59.40187 22.93164 58.44679 24.16211 58.44679 25.96973 C 58.44679 27.79395 59.40187 29.01563 60.82179 29.01563 C 62.26711 29.01563 63.21438 27.81934 63.21438 25.96973 Z" fill="#666"/>
      </g>
      <g id="Graphic_21">
        <rect x="66.62941" y="18.07813" width="1.85938" height="12.418" fill="#666"/>
      </g>
      <g id="Graphic_20">
        <path d="M 78.16457 27.83691 C 77.91457 29.48046 76.31398 30.60839 74.26613 30.60839 C 71.63234 30.60839 69.99758 28.84374 69.99758 26.01269 C 69.99758 23.17285 71.64113 21.33105 74.188 21.33105 C 76.69289 21.33105 78.26809 23.05175 78.26809 25.79687 L 78.26809 26.43359 L 71.87356 26.43359 L 71.87356 26.54589 C 71.81386 27.219922 72.0466 27.88712 72.51259 28.37777 C 72.97858 28.86842 73.6329 29.135233 74.30911 29.11034 C 75.21095 29.19484 76.06121 28.676978 76.39993 27.8369 Z M 71.88234 25.13476 L 76.40871 25.13476 C 76.44243 24.529097 76.22196 23.936822 75.80041 23.50063 C 75.378865 23.06444 74.79446 22.82388 74.188 22.83691 C 73.57674 22.833265 72.989355 23.073938 72.55639 23.505437 C 72.12343 23.936935 71.88077 24.523505 71.88234 25.13477 Z" fill="#666"/>
      </g>
      <g id="Graphic_19">
        <path d="M 86.59133 30.49609 L 86.59133 19.73828 L 82.78762 19.73828 L 82.78762 18.07813 L 92.314 18.07813 L 92.314 19.73829 L 88.51906 19.73829 L 88.51906 30.49609 Z" fill="#666"/>
      </g>
      <g id="Graphic_18">
        <path d="M 97.39992 30.49609 L 92.9673 18.07809 L 95.0591 18.07809 L 98.44094 28.32709 L 98.4927 28.32709 L 101.88333 18.07809 L 103.94 18.07809 L 99.50836 30.49609 Z" fill="#666"/>
      </g>
      <g id="Graphic_14">
        <path d="M 37.82619 8.731 C 38.615137 8.674384 39.38789 8.974547 39.93176 9.548872 C 40.47563 10.123196 40.733286 10.911145 40.63381 11.69584 C 40.63381 13.60209 39.60354 14.69784 37.82619 14.69784 L 35.67092 14.69784 L 35.67092 8.731 Z M 36.59767 13.854 L 37.72267 13.854 C 38.28649 13.887702 38.835487 13.665559 39.21722 13.249252 C 39.59895 12.832945 39.77278 12.266794 39.69044 11.708 C 39.76679 11.151525 39.590457 10.590046 39.20967 10.177134 C 38.828886 9.764222 38.283496 9.543086 37.72267 9.57421 L 36.59767 9.57421 Z" fill="#666"/>
      </g>
      <g id="Graphic_13">
        <path d="M 41.68068 12.44434 C 41.603467 11.637225 41.990484 10.856112 42.679416 10.428597 C 43.36835 10.001083 44.24008 10.001083 44.929014 10.428597 C 45.617946 10.856112 46.004963 11.637225 45.92775 12.44434 C 46.00643 13.252322 45.61977 14.03495 44.930226 14.463385 C 44.24068 14.89182 43.36775 14.89182 42.678204 14.463385 C 41.98866 14.03495 41.602 13.252322 41.68068 12.44434 Z M 45.01368 12.44434 C 45.01368 11.46827 44.5752 10.89747 43.80568 10.89747 C 43.03322 10.89747 42.59868 11.46827 42.59868 12.44435 C 42.59868 13.42824 43.03325 13.99464 43.80568 13.99464 C 44.57522 13.99463 45.01369 13.42432 45.01369 12.44434 Z" fill="#666"/>
      </g>
      <g id="Graphic_12">
        <path d="M 51.57326 14.69775 L 50.65139 14.69775 L 49.72073 11.38134 L 49.65042 11.38134 L 48.72366 14.69775 L 47.81057 14.69775 L 46.56936 10.19482 L 47.47073 10.19482 L 48.27737 13.63082 L 48.34378 13.63082 L 49.26956 10.19482 L 50.1221 10.19482 L 51.04788 13.63082 L 51.11819 13.63082 L 51.92092 10.19482 L 52.80959 10.19482 Z" fill="#666"/>
      </g>
      <g id="Graphic_11">
        <path d="M 53.85354 10.19482 L 54.709 10.19482 L 54.709 10.91015 L 54.77541 10.91015 C 55.006345 10.383478 55.54597 10.061307 56.11916 10.1079 C 56.56298 10.074532 56.997886 10.24479 57.30109 10.570602 C 57.604296 10.896414 57.74289 11.342424 57.67775 11.7827 L 57.67775 14.6977 L 56.78908 14.6977 L 56.78908 12.00586 C 56.78908 11.28223 56.47463 10.92236 55.8174 10.92236 C 55.516366 10.908339 55.22422 11.026483 55.017555 11.245817 C 54.81089 11.465151 54.710315 11.763801 54.7422 12.06347 L 54.7422 14.69775 L 53.85353 14.69775 Z" fill="#666"/>
      </g>
      <g id="Graphic_10">
        <rect x="59.09377" y="8.437" width=".88867" height="6.26074" fill="#666"/>
      </g>
      <g id="Graphic_9">
        <path d="M 61.21779 12.44434 C 61.14064 11.637172 61.527714 10.85604 62.2167 10.428518 C 62.90568 10.000997 63.77746 10.000997 64.46644 10.428518 C 65.155426 10.85604 65.5425 11.637172 65.46535 12.44434 C 65.54393 13.252351 65.1572 14.034957 64.46762 14.463373 C 63.77804 14.89179 62.9051 14.89179 62.21552 14.463373 C 61.52594 14.034957 61.13921 13.252351 61.21779 12.44434 Z M 64.55129 12.44434 C 64.55129 11.46827 64.11281 10.89747 63.34329 10.89747 C 62.57083 10.89747 62.13629 11.46827 62.13629 12.44435 C 62.13629 13.42824 62.57086 13.99464 63.34329 13.99464 C 64.11281 13.99463 64.55129 13.42432 64.55129 12.44434 Z" fill="#666"/>
      </g>
      <g id="Graphic_8">
        <path d="M 66.4009 13.42432 C 66.4009 12.61377 67.00442 12.14649 68.0757 12.08008 L 69.29543 12.00977 L 69.29543 11.6211 C 69.29543 11.14551 68.98098 10.87696 68.37356 10.87696 C 67.87747 10.87696 67.53372 11.05909 67.43508 11.37745 L 66.57473 11.37745 C 66.66555 10.60401 67.39309 10.10792 68.41457 10.10792 C 69.54348 10.10792 70.1802 10.66992 70.1802 11.6211 L 70.1802 14.69776 L 69.32473 14.69776 L 69.32473 14.06495 L 69.25442 14.06495 C 68.96387 14.527076 68.44717 14.797163 67.90188 14.77195 C 67.51962 14.811712 67.13837 14.68791 66.852396 14.431152 C 66.56642 14.174394 66.40241 13.808643 66.4009 13.42432 Z M 69.29543 13.03955 L 69.29543 12.66309 L 68.19582 12.7334 C 67.5757 12.7749 67.29445 12.98584 67.29445 13.38281 C 67.29445 13.78808 67.64601 14.02392 68.12945 14.02392 C 68.41564 14.05289 68.70133 13.964475 68.92112 13.778916 C 69.140914 13.593356 69.27599 13.326541 69.29543 13.03955 Z" fill="#666"/>
      </g>
      <g id="Graphic_7">
        <path d="M 71.34816 12.44434 C 71.34816 11.02149 72.07961 10.12012 73.2173 10.12012 C 73.79178 10.09365 74.32983 10.401473 74.59816 10.91012 L 74.66457 10.91012 L 74.66457 8.437 L 75.55324 8.437 L 75.55324 14.69774 L 74.70168 14.69774 L 74.70168 13.98631 L 74.63137 13.98631 C 74.34275 14.490737 73.798075 14.793356 73.21731 14.77195 C 72.0718 14.772 71.34816 13.87061 71.34816 12.44434 Z M 72.26616 12.44434 C 72.26616 13.39942 72.71636 13.97413 73.46929 13.97413 C 74.21829 13.97413 74.6812 13.39113 74.6812 12.44825 C 74.6812 11.50977 74.21343 10.91846 73.46929 10.91846 C 72.72121 10.91846 72.26613 11.49707 72.26613 12.44434 Z" fill="#666"/>
      </g>
      <g id="Graphic_6">
        <path d="M 79.23 12.44434 C 79.15279 11.637225 79.5398 10.856112 80.22874 10.428597 C 80.91767 10.001083 81.7894 10.001083 82.47833 10.428597 C 83.16727 10.856112 83.55428 11.637225 83.47707 12.44434 C 83.55575 13.252322 83.16909 14.03495 82.47955 14.463385 C 81.79 14.89182 80.91707 14.89182 80.22752 14.463385 C 79.53798 14.03495 79.15132 13.252322 79.23 12.44434 Z M 82.563 12.44434 C 82.563 11.46827 82.12452 10.89747 81.355 10.89747 C 80.58254 10.89747 80.148 11.46827 80.148 12.44435 C 80.148 13.42824 80.58257 13.99464 81.355 13.99464 C 82.12453 13.99463 82.563 13.42432 82.563 12.44434 Z" fill="#666"/>
      </g>
      <g id="Graphic_5">
        <path d="M 84.66945 10.19482 L 85.52492 10.19482 L 85.52492 10.91015 L 85.59133 10.91015 C 85.82226 10.383478 86.36189 10.061307 86.93508 10.1079 C 87.3789 10.074532 87.81381 10.24479 88.11701 10.570602 C 88.42022 10.896414 88.55881 11.342424 88.49367 11.7827 L 88.49367 14.6977 L 87.605 14.6977 L 87.605 12.00586 C 87.605 11.28223 87.29055 10.92236 86.63332 10.92236 C 86.33229 10.908339 86.04014 11.026483 85.83347 11.245817 C 85.62681 11.465151 85.52624 11.763801 85.55812 12.06347 L 85.55812 14.69775 L 84.66945 14.69775 Z" fill="#666"/>
      </g>
    </g>
  </g>
</svg>
